<svg width="100.00002441406247" height="105.10665559292205" viewBox="0 0 433.6666666666667 121.875" class="looka-1j8o68f"><defs id="SvgjsDefs10823"><linearGradient id="SvgjsLinearGradient10830"><stop id="SvgjsStop10831" stop-color="#905e26" offset="0"></stop><stop id="SvgjsStop10832" stop-color="#f5ec9b" offset="0.5"></stop><stop id="SvgjsStop10833" stop-color="#905e26" offset="1"></stop></linearGradient><linearGradient id="SvgjsLinearGradient10834"><stop id="SvgjsStop10835" stop-color="#834f2a" offset="0"></stop><stop id="SvgjsStop10836" stop-color="#dba173" offset="0.5"></stop><stop id="SvgjsStop10837" stop-color=" #834F2A" offset="1"></stop></linearGradient></defs><g id="SvgjsG10824" featurekey="symbolContainer" transform="matrix(2.4375,0,0,2.4375,0.12187343090772629,0)" fill="url(#SvgjsLinearGradient10830)"><path xmlns="http://www.w3.org/2000/svg" d="M24.95 0a25 25 0 1 0 25 25 25 25 0 0 0-25-25zm0 46.91a22 22 0 1 1 22-22 22 22 0 0 1-22 21.99z"></path><path xmlns="http://www.w3.org/2000/svg" d="M24.95 3.65a21.3 21.3 0 1 0 21.3 21.3 21.33 21.33 0 0 0-21.3-21.3z"></path></g><g id="SvgjsG10825" featurekey="monogramFeature-0" transform="matrix(1.8591149200748198,0,0,1.8591149200748198,27.538674527963153,-11.467015270976923)" fill="#00204a"><path d="M33.744 45.113 c0.0012305 0.058887 -0.0009375 0.11748 -0.0033985 0.17473 c-0.0016406 0.034981 0.00041015 0.069552 -0.0020508 0.10494 c-0.0016406 0.022676 -0.0045117 0.044883 -0.0061524 0.06756 l-0.0036914 0.040781 c-0.61848 8.1378 -7.4664 14.497 -15.641 14.497 c-8.6502 0 -15.688 -7.038 -15.688 -15.688 c0 -1.8191 1.4749 -3.2941 3.2941 -3.2941 s3.2941 1.4749 3.2941 3.2941 c0 5.0177 4.0822 9.1002 9.1002 9.1002 c4.2877 0 7.9374 -3.019 8.8638 -7.086 l-11.194 -11.194 c-1.2863 -1.2863 -1.2863 -3.3719 0 -4.6583 c1.2868 -1.2863 3.3719 -1.2863 4.6587 0 l12.364 12.364 c0.025137 0.025137 0.046113 0.051914 0.07002 0.07746 c0.040371 0.043242 0.080742 0.086076 0.11865 0.13136 c0.03539 0.042012 0.067908 0.084846 0.10084 0.12767 c0.031699 0.041602 0.062988 0.083202 0.092634 0.12604 c0.03293 0.047754 0.06381 0.09633 0.093864 0.14531 c0.025547 0.041602 0.050684 0.083616 0.074592 0.12644 c0.028008 0.051035 0.054375 0.10207 0.079512 0.15392 c0.022207 0.044883 0.043594 0.090174 0.063342 0.13629 c0.021797 0.050625 0.041953 0.10125 0.060882 0.15229 c0.018926 0.050625 0.036621 0.10084 0.053086 0.15229 c0.015235 0.048985 0.029238 0.09756 0.042422 0.14695 c0.014824 0.054785 0.028418 0.10998 0.040371 0.166 c0.010313 0.048574 0.018574 0.097146 0.026836 0.14572 c0.009492 0.056426 0.018164 0.11326 0.024727 0.17051 c0.0057422 0.051856 0.0094338 0.10371 0.012715 0.15557 c0.0036914 0.053965 0.0069726 0.10793 0.0077928 0.16231 z M2.432 32.887 c-0.0012305 -0.058477 0.001289 -0.11748 0.00375 -0.17514 c0.0016406 -0.034981 -0.00041015 -0.069552 0.0020508 -0.10494 c0.0016406 -0.022676 0.0045117 -0.044883 0.0061524 -0.06756 l0.0036914 -0.040781 c0.61848 -8.1378 7.4664 -14.497 15.641 -14.497 c8.6502 0 15.688 7.038 15.688 15.688 c0 1.8191 -1.4749 3.2941 -3.2941 3.2941 s-3.2941 -1.4749 -3.2941 -3.2941 c0 -5.0177 -4.0822 -9.1002 -9.1002 -9.1002 c-4.2877 0 -7.9374 3.019 -8.8638 7.086 l11.194 11.194 c1.2863 1.2863 1.2863 3.3719 0 4.6583 c-0.6432 0.6432 -1.4861 0.96474 -2.3293 0.96474 s-1.6861 -0.32156 -2.3293 -0.96474 l-12.364 -12.364 c-0.025137 -0.025137 -0.046113 -0.051914 -0.07002 -0.07746 c-0.040371 -0.043242 -0.080742 -0.086076 -0.11865 -0.13136 c-0.03539 -0.042012 -0.067908 -0.084846 -0.10084 -0.12767 c-0.031699 -0.041602 -0.062988 -0.083202 -0.092634 -0.12604 c-0.03293 -0.047754 -0.06381 -0.09633 -0.093864 -0.14531 c-0.025547 -0.041602 -0.050684 -0.083616 -0.074592 -0.12644 c-0.028008 -0.051035 -0.054375 -0.10207 -0.079512 -0.15392 c-0.022207 -0.045293 -0.043184 -0.090174 -0.063342 -0.13629 c-0.021797 -0.050215 -0.041953 -0.10125 -0.060882 -0.15229 c-0.018926 -0.050215 -0.036621 -0.10043 -0.053086 -0.15188 c-0.015644 -0.048574 -0.029648 -0.09756 -0.042832 -0.14695 c-0.014824 -0.055195 -0.028418 -0.10998 -0.040371 -0.166 c-0.010313 -0.048574 -0.018574 -0.097146 -0.026836 -0.14572 c-0.009492 -0.056426 -0.018164 -0.11326 -0.024727 -0.17051 c-0.0057422 -0.051856 -0.0094338 -0.10371 -0.012715 -0.15557 c-0.0036914 -0.053965 -0.0069726 -0.10793 -0.0077928 -0.16231 z"></path></g><g id="SvgjsG10826" featurekey="nameFeature-0" transform="matrix(1.5575212162832672,0,0,1.5575212162832672,139.50826847486775,14.309351782085766)" fill="url(#SvgjsLinearGradient10834)"><path d="M22.496 30.0756 c0.00082032 0.039258 -0.000625 0.07832 -0.0022656 0.11648 c-0.0010938 0.02332 0.00027344 0.046368 -0.0013672 0.06996 c-0.0010938 0.015117 -0.0030078 0.029922 -0.0041016 0.04504 l-0.0024609 0.027188 c-0.41232 5.4252 -4.9776 9.6648 -10.427 9.6648 c-5.7668 0 -10.459 -4.692 -10.459 -10.459 c0 -1.2128 0.98328 -2.196 2.196 -2.196 s2.196 0.98328 2.196 2.196 c0 3.3452 2.7215 6.0668 6.0668 6.0668 c2.8585 0 5.2916 -2.0127 5.9092 -4.724 l-7.4624 -7.4624 c-0.85756 -0.85756 -0.85756 -2.248 0 -3.1056 c0.85784 -0.85756 2.248 -0.85756 3.1058 0 l8.2428 8.2428 c0.016758 0.016758 0.030742 0.034609 0.04668 0.05164 c0.026914 0.028828 0.053828 0.057384 0.0791 0.087576 c0.023594 0.028008 0.045272 0.056564 0.067228 0.085116 c0.021133 0.027734 0.041992 0.055468 0.061756 0.084024 c0.021953 0.031836 0.04254 0.06422 0.062576 0.096876 c0.017031 0.027734 0.033789 0.055744 0.049728 0.084296 c0.018672 0.034024 0.03625 0.068048 0.053008 0.10262 c0.014805 0.029922 0.029062 0.060116 0.042228 0.09086 c0.014531 0.03375 0.027969 0.0675 0.040588 0.10152 c0.012617 0.03375 0.024414 0.067228 0.035391 0.10152 c0.010156 0.032656 0.019492 0.06504 0.028281 0.097968 c0.0098828 0.036524 0.018945 0.07332 0.026914 0.11066 c0.0068752 0.032383 0.012383 0.064764 0.017891 0.097148 c0.006328 0.037617 0.012109 0.075508 0.016484 0.11367 c0.0038281 0.03457 0.0062892 0.06914 0.0084764 0.10371 c0.0024609 0.035976 0.0046484 0.071952 0.0051952 0.1082 z M1.6213 21.924 c-0.00082032 -0.038984 0.00085936 -0.07832 0.0025 -0.11676 c0.0010938 -0.02332 -0.00027344 -0.046368 0.0013672 -0.06996 c0.0010938 -0.015117 0.0030078 -0.029922 0.0041016 -0.04504 l0.0024609 -0.027188 c0.41232 -5.4252 4.9776 -9.6648 10.427 -9.6648 c5.7668 0 10.459 4.692 10.459 10.459 c0 1.2128 -0.98328 2.196 -2.196 2.196 s-2.196 -0.98328 -2.196 -2.196 c0 -3.3452 -2.7215 -6.0668 -6.0668 -6.0668 c-2.8585 0 -5.2916 2.0127 -5.9092 4.724 l7.4624 7.4624 c0.85756 0.85756 0.85756 2.248 0 3.1056 c-0.4288 0.4288 -0.99072 0.64316 -1.5529 0.64316 s-1.1241 -0.21438 -1.5529 -0.64316 l-8.2428 -8.2428 c-0.016758 -0.016758 -0.030742 -0.034609 -0.04668 -0.05164 c-0.026914 -0.028828 -0.053828 -0.057384 -0.0791 -0.087576 c-0.023594 -0.028008 -0.045272 -0.056564 -0.067228 -0.085116 c-0.021133 -0.027734 -0.041992 -0.055468 -0.061756 -0.084024 c-0.021953 -0.031836 -0.04254 -0.06422 -0.062576 -0.096876 c-0.017031 -0.027734 -0.033789 -0.055744 -0.049728 -0.084296 c-0.018672 -0.034024 -0.03625 -0.068048 -0.053008 -0.10262 c-0.014805 -0.030195 -0.028789 -0.060116 -0.042228 -0.09086 c-0.014531 -0.033476 -0.027969 -0.0675 -0.040588 -0.10152 c-0.012617 -0.033476 -0.024414 -0.066952 -0.035391 -0.10125 c-0.01043 -0.032383 -0.019766 -0.06504 -0.028555 -0.097968 c-0.0098828 -0.036797 -0.018945 -0.07332 -0.026914 -0.11066 c-0.0068752 -0.032383 -0.012383 -0.064764 -0.017891 -0.097148 c-0.006328 -0.037617 -0.012109 -0.075508 -0.016484 -0.11367 c-0.0038281 -0.03457 -0.0062892 -0.06914 -0.0084764 -0.10371 c-0.0024609 -0.035976 -0.0046484 -0.071952 -0.0051952 -0.1082 z M34.748 19.412 c5.6764 0 10.294 4.6176 10.294 10.294 s-4.6176 10.294 -10.294 10.294 s-10.294 -4.6176 -10.294 -10.294 s4.6176 -10.294 10.294 -10.294 z M34.748 35.608 c3.2543 0 5.902 -2.6476 5.902 -5.902 s-2.6476 -5.902 -5.902 -5.902 s-5.902 2.6476 -5.902 5.902 s2.6476 5.902 5.902 5.902 z M61.456 33.8792 c0.85756 -0.85756 2.2482 -0.85772 3.1058 0.00011719 c0.85784 0.85756 0.85784 2.248 0 3.1056 c-1.9443 1.9443 -4.5292 3.0149 -7.2792 3.0149 c-5.6764 0 -10.294 -4.6176 -10.294 -10.294 s4.6176 -10.294 10.294 -10.294 c2.7498 0 5.3348 1.0706 7.2788 3.0152 c0.85784 0.85756 0.85784 2.248 0 3.1056 c-0.85756 0.85756 -2.248 0.85756 -3.1056 0 c-1.1145 -1.1148 -2.5968 -1.7286 -4.1732 -1.7286 c-3.2543 0 -5.902 2.6476 -5.902 5.902 s2.6476 5.902 5.902 5.902 c1.5765 0 3.0586 -0.6138 4.1732 -1.7286 z M69.358 19.412 c1.2128 0 2.196 0.98328 2.196 2.196 l0 16.196 c0 1.2128 -0.98328 2.196 -2.196 2.196 s-2.196 -0.98328 -2.196 -2.196 l0 -16.196 c0 -1.2128 0.98328 -2.196 2.196 -2.196 z M67.32939999999999 15.036000000000001 c-0.054884 -0.13176 -0.096056 -0.2718 -0.12352 -0.4118 c-0.030195 -0.14 -0.043908 -0.28551 -0.043908 -0.42824 s0.013711 -0.28824 0.043908 -0.42824 c0.027461 -0.14 0.068632 -0.28 0.12352 -0.41176 s0.12352 -0.26078 0.20312 -0.37883 c0.079608 -0.12078 0.1702 -0.23332 0.27176 -0.33488 s0.2141 -0.19215 0.33488 -0.27176 c0.11805 -0.079608 0.24707 -0.14824 0.37883 -0.20312 s0.27176 -0.096056 0.41176 -0.12352 c0.71372 -0.14551 1.4714 0.090588 1.982 0.59844 c0.098828 0.10156 0.19215 0.2141 0.27176 0.33488 c0.079608 0.11805 0.14824 0.24707 0.20312 0.37883 s0.096056 0.27176 0.12352 0.41176 c0.030195 0.14 0.043908 0.28551 0.043908 0.42824 s-0.013711 0.28824 -0.043908 0.42824 c-0.027461 0.14 -0.068632 0.28 -0.12352 0.41176 s-0.12352 0.26078 -0.20312 0.37883 c-0.079608 0.12078 -0.17293 0.23332 -0.27176 0.33488 c-0.10156 0.10156 -0.2141 0.19215 -0.33488 0.27176 c-0.11805 0.079608 -0.24707 0.14824 -0.37883 0.20312 s-0.27176 0.096056 -0.41176 0.12352 c-0.14 0.030195 -0.28551 0.043908 -0.42824 0.043908 s-0.28824 -0.013711 -0.42824 -0.043908 c-0.14 -0.027461 -0.28 -0.068632 -0.41176 -0.12352 s-0.26078 -0.12352 -0.37883 -0.20312 c-0.12078 -0.079608 -0.23332 -0.1702 -0.33488 -0.27176 s-0.19215 -0.2141 -0.27176 -0.33488 c-0.079608 -0.11805 -0.14824 -0.24707 -0.20312 -0.37883 z M83.83 19.412 c5.6764 0 10.294 4.6176 10.294 10.294 s-4.6176 10.294 -10.294 10.294 s-10.294 -4.6176 -10.294 -10.294 s4.6176 -10.294 10.294 -10.294 z M83.83 35.608 c3.2543 0 5.902 -2.6476 5.902 -5.902 s-2.6476 -5.902 -5.902 -5.902 s-5.902 2.6476 -5.902 5.902 s2.6476 5.902 5.902 5.902 z M127.89999999999999 30.0756 c0.00082032 0.039258 -0.000625 0.07832 -0.0022656 0.11648 c-0.0010938 0.02332 0.00027344 0.046368 -0.0013672 0.06996 c-0.0010938 0.015117 -0.0030078 0.029922 -0.0041016 0.04504 l-0.0024609 0.027188 c-0.41232 5.4252 -4.9776 9.6648 -10.427 9.6648 c-5.7668 0 -10.459 -4.692 -10.459 -10.459 c0 -1.2128 0.98328 -2.196 2.196 -2.196 s2.196 0.98328 2.196 2.196 c0 3.3452 2.7215 6.0668 6.0668 6.0668 c2.8585 0 5.2916 -2.0127 5.9092 -4.724 l-7.4624 -7.4624 c-0.85756 -0.85756 -0.85756 -2.248 0 -3.1056 c0.85784 -0.85756 2.248 -0.85756 3.1058 0 l8.2428 8.2428 c0.016758 0.016758 0.030742 0.034609 0.04668 0.05164 c0.026914 0.028828 0.053828 0.057384 0.0791 0.087576 c0.023594 0.028008 0.045272 0.056564 0.067228 0.085116 c0.021133 0.027734 0.041992 0.055468 0.061756 0.084024 c0.021953 0.031836 0.04254 0.06422 0.062576 0.096876 c0.017031 0.027734 0.033789 0.055744 0.049728 0.084296 c0.018672 0.034024 0.03625 0.068048 0.053008 0.10262 c0.014805 0.029922 0.029062 0.060116 0.042228 0.09086 c0.014531 0.03375 0.027969 0.0675 0.040588 0.10152 c0.012617 0.03375 0.024414 0.067228 0.035391 0.10152 c0.010156 0.032656 0.019492 0.06504 0.028281 0.097968 c0.0098828 0.036524 0.018945 0.07332 0.026914 0.11066 c0.0068752 0.032383 0.012383 0.064764 0.017891 0.097148 c0.006328 0.037617 0.012109 0.075508 0.016484 0.11367 c0.0038281 0.03457 0.0062892 0.06914 0.0084764 0.10371 c0.0024609 0.035976 0.0046484 0.071952 0.0051952 0.1082 z M107.0253 21.924 c-0.00082032 -0.038984 0.00085936 -0.07832 0.0025 -0.11676 c0.0010938 -0.02332 -0.00027344 -0.046368 0.0013672 -0.06996 c0.0010938 -0.015117 0.0030078 -0.029922 0.0041016 -0.04504 l0.0024609 -0.027188 c0.41232 -5.4252 4.9776 -9.6648 10.427 -9.6648 c5.7668 0 10.459 4.692 10.459 10.459 c0 1.2128 -0.98328 2.196 -2.196 2.196 s-2.196 -0.98328 -2.196 -2.196 c0 -3.3452 -2.7215 -6.0668 -6.0668 -6.0668 c-2.8585 0 -5.2916 2.0127 -5.9092 4.724 l7.4624 7.4624 c0.85756 0.85756 0.85756 2.248 0 3.1056 c-0.4288 0.4288 -0.99072 0.64316 -1.5529 0.64316 s-1.1241 -0.21438 -1.5529 -0.64316 l-8.2428 -8.2428 c-0.016758 -0.016758 -0.030742 -0.034609 -0.04668 -0.05164 c-0.026914 -0.028828 -0.053828 -0.057384 -0.0791 -0.087576 c-0.023594 -0.028008 -0.045272 -0.056564 -0.067228 -0.085116 c-0.021133 -0.027734 -0.041992 -0.055468 -0.061756 -0.084024 c-0.021953 -0.031836 -0.04254 -0.06422 -0.062576 -0.096876 c-0.017031 -0.027734 -0.033789 -0.055744 -0.049728 -0.084296 c-0.018672 -0.034024 -0.03625 -0.068048 -0.053008 -0.10262 c-0.014805 -0.030195 -0.028789 -0.060116 -0.042228 -0.09086 c-0.014531 -0.033476 -0.027969 -0.0675 -0.040588 -0.10152 c-0.012617 -0.033476 -0.024414 -0.066952 -0.035391 -0.10125 c-0.01043 -0.032383 -0.019766 -0.06504 -0.028555 -0.097968 c-0.0098828 -0.036797 -0.018945 -0.07332 -0.026914 -0.11066 c-0.0068752 -0.032383 -0.012383 -0.064764 -0.017891 -0.097148 c-0.006328 -0.037617 -0.012109 -0.075508 -0.016484 -0.11367 c-0.0038281 -0.03457 -0.0062892 -0.06914 -0.0084764 -0.10371 c-0.0024609 -0.035976 -0.0046484 -0.071952 -0.0051952 -0.1082 z M148.57999999999998 19.412 c1.2128 0 2.1962 0.98328 2.1962 2.196 l0 15.338 c0 5.7668 -4.692 10.459 -10.459 10.459 c-1.2128 0 -2.196 -0.98328 -2.196 -2.196 s0.98328 -2.196 2.196 -2.196 c2.9375 0 5.3936 -2.0992 5.9484 -4.876 c-1.6902 1.1732 -3.7399 1.8634 -5.9488 1.8634 c-5.7668 0 -10.459 -4.692 -10.459 -10.459 l0 -7.9333 c0 -1.2128 0.98328 -2.196 2.196 -2.196 s2.196 0.98328 2.196 2.196 l0 7.9333 c0 3.3452 2.7215 6.0668 6.0668 6.0668 s6.0668 -2.7215 6.0668 -6.0668 l0 -7.9333 c0 -1.2128 0.98328 -2.196 2.196 -2.196 z M160.69239999999996 19.412 c4.4004 0 7.98 3.5802 7.98 7.9804 l0 10.412 c0 1.2128 -0.98328 2.196 -2.196 2.196 s-2.196 -0.98328 -2.196 -2.196 l0 -10.412 c0 -1.9784 -1.6094 -3.5881 -3.5881 -3.5881 s-3.5881 1.6094 -3.5881 3.5881 l0 10.412 c0 1.2128 -0.98328 2.196 -2.196 2.196 s-2.196 -0.98328 -2.196 -2.196 l0 -16.196 c0 -1.2128 0.98328 -2.196 2.196 -2.196 c0.78592 0 1.4733 0.4142 1.8615 1.0349 c1.1592 -0.65744 2.4975 -1.0349 3.9227 -1.0349 z M185.11399999999998 33.8792 c0.85756 -0.85756 2.2482 -0.85772 3.1058 0.00011719 c0.85784 0.85756 0.85784 2.248 0 3.1056 c-1.9443 1.9443 -4.5292 3.0149 -7.2792 3.0149 c-5.6764 0 -10.294 -4.6176 -10.294 -10.294 s4.6176 -10.294 10.294 -10.294 c2.7498 0 5.3348 1.0706 7.2788 3.0152 c0.85784 0.85756 0.85784 2.248 0 3.1056 c-0.85756 0.85756 -2.248 0.85756 -3.1056 0 c-1.1145 -1.1148 -2.5968 -1.7286 -4.1732 -1.7286 c-3.2543 0 -5.902 2.6476 -5.902 5.902 s2.6476 5.902 5.902 5.902 c1.5765 0 3.0586 -0.6138 4.1732 -1.7286 z"></path></g></svg>